<svg xmlns="http://www.w3.org/2000/svg" width="1024" height="1024" viewBox="0 0 1024 1024">
<g>
<path d="M 234.35 803.65 C228.52,806.37 218.56,807.44 212.73,805.97 C202.85,803.48 191.81,794.49 187.87,785.70 C184.56,778.33 184.51,764.67 187.77,757.58 C194.53,742.90 210.59,734.16 225.70,736.95 C237.75,739.17 245.95,745.25 251.70,756.21 C254.16,760.90 254.47,762.57 254.49,771.02 C254.50,779.77 254.24,781.07 251.21,787.22 C247.48,794.80 242.11,800.03 234.35,803.65 ZM 418.26 795.25 C414.35,804.66 413.50,806.00 411.41,806.00 C408.77,806.00 406.89,802.78 398.99,784.75 C396.64,779.39 394.44,775.00 394.11,775.00 C393.77,775.00 393.65,781.48 393.84,789.41 L 394.18 803.81 L 386.61 804.52 C382.45,804.91 378.36,804.97 377.52,804.65 C376.20,804.14 376.00,799.68 376.00,771.03 L 376.00 738.00 L 393.55 738.00 L 402.02 755.09 C406.69,764.48 410.83,772.38 411.23,772.63 C411.63,772.89 415.90,765.20 420.72,755.55 L 429.47 738.00 L 447.03 738.00 L 446.76 771.25 L 446.50 804.50 L 428.50 804.50 L 428.22 789.75 C428.07,781.64 427.57,775.00 427.11,775.00 C426.65,775.00 425.47,777.14 424.50,779.75 C423.53,782.36 420.72,789.34 418.26,795.25 ZM 800.77 786.75 L 800.50 804.50 L 792.45 804.79 C788.03,804.95 784.09,804.76 783.70,804.37 C783.32,803.98 783.00,789.17 783.00,771.45 L 783.00 739.23 L 789.25 738.65 C792.69,738.34 796.60,737.95 797.95,737.79 C800.00,737.55 801.30,738.75 805.71,745.00 C814.05,756.79 827.32,774.00 828.07,774.00 C828.45,774.00 828.53,766.20 828.24,756.66 L 827.72 739.31 L 833.11 738.66 C836.07,738.31 840.19,738.01 842.26,738.01 L 846.03 738.00 L 845.50 804.50 L 837.89 804.79 C837.26,804.81 836.68,804.84 836.14,804.87 C834.36,804.97 833.07,805.04 831.87,804.74 C828.33,803.85 825.59,799.77 813.50,783.70 C807.45,775.66 802.17,769.06 801.77,769.04 C801.37,769.02 800.92,776.99 800.77,786.75 ZM 126.75 804.35 C121.43,804.99 115.03,805.21 114.96,804.75 C114.95,804.61 114.75,789.76 114.54,771.75 L 114.14 739.00 L 118.92 739.00 C121.55,739.00 125.13,738.50 126.87,737.89 C130.91,736.49 131.49,736.97 139.02,747.93 C146.72,759.12 157.75,773.00 158.96,773.00 C159.55,773.00 159.68,766.56 159.30,756.10 L 158.69 739.19 L 165.10 738.51 C168.63,738.13 172.86,737.97 174.50,738.16 C177.32,738.48 177.50,738.76 177.45,742.75 C177.43,745.09 177.32,759.77 177.20,775.37 L 177.00 803.74 L 170.04 804.43 C165.96,804.83 162.32,804.71 161.24,804.13 C160.23,803.59 153.59,795.46 146.50,786.07 C139.40,776.68 133.23,769.00 132.80,769.00 C132.36,769.00 132.00,776.81 132.00,786.36 L 132.00 803.72 ZM 901.06 804.42 C892.60,806.34 883.09,806.35 876.86,804.43 C870.20,802.38 862.96,795.48 859.41,787.80 C856.78,782.11 856.50,780.48 856.50,771.00 C856.50,761.76 856.81,759.83 859.12,754.91 C862.31,748.11 867.78,742.46 873.91,739.62 C877.67,737.89 880.41,737.50 889.00,737.50 C898.76,737.50 899.88,737.71 904.82,740.45 C907.75,742.07 911.06,744.67 912.17,746.24 L 914.19 749.07 L 909.95 754.57 C907.62,757.59 905.31,760.31 904.82,760.61 C904.34,760.91 902.42,759.82 900.55,758.18 C894.38,752.76 882.07,752.75 877.52,758.16 C872.78,763.79 871.86,773.96 875.47,780.94 C879.00,787.78 889.40,790.95 897.35,787.63 L 901.15 786.04 L 900.52 780.27 C900.17,777.10 899.80,773.38 899.70,772.00 L 899.50 769.50 L 919.00 769.50 L 919.00 787.25 C919.00,797.01 918.80,805.00 918.55,805.00 C918.30,805.00 915.83,804.51 913.06,803.92 C909.04,803.06 906.59,803.16 901.06,804.42 ZM 473.36 802.75 C472.20,804.61 471.13,804.98 467.23,804.86 C460.05,804.64 454.48,803.59 454.69,802.49 C454.87,801.59 475.32,746.23 477.87,739.75 C478.93,737.05 479.11,737.00 487.37,737.00 C493.17,737.00 495.94,737.39 496.29,738.25 C503.45,756.12 521.00,802.54 521.00,803.61 C521.00,804.81 519.34,805.02 511.75,804.79 L 502.50 804.50 L 500.00 799.75 L 497.50 795.01 L 486.77 795.00 L 476.04 795.00 L 475.40 797.75 C475.05,799.26 474.13,801.51 473.36,802.75 ZM 603.69 803.75 C602.90,804.97 597.32,805.16 588.65,804.27 C585.62,803.95 584.90,803.51 585.28,802.18 C586.22,798.85 608.01,740.47 608.86,739.00 C609.55,737.81 611.44,737.57 618.11,737.85 C622.73,738.05 626.62,738.32 626.77,738.45 C626.91,738.59 632.67,753.24 639.56,771.00 C646.87,789.85 651.72,803.68 651.20,804.20 C650.71,804.69 646.56,804.95 641.97,804.79 L 633.62 804.50 L 631.00 800.00 L 628.37 795.50 L 606.56 795.50 L 605.53 799.00 C604.96,800.92 604.14,803.06 603.69,803.75 ZM 738.35 795.22 L 727.76 795.50 L 724.45 804.50 L 718.98 804.60 C709.40,804.78 705.74,804.09 706.24,802.18 C707.61,796.99 729.43,739.32 730.37,738.42 C731.07,737.74 734.55,737.50 739.57,737.76 L 747.64 738.20 L 760.28 770.77 C767.22,788.68 772.68,803.71 772.40,804.17 C772.11,804.63 767.87,805.00 762.96,805.00 L 754.03 805.00 L 751.48 799.97 L 748.93 794.93 ZM 687.96 778.75 L 688.09 805.00 L 678.71 805.00 C673.55,805.00 669.05,804.72 668.71,804.38 C668.37,804.04 668.37,792.28 668.71,778.24 L 669.32 752.71 L 661.02 753.44 L 652.72 754.16 L 653.50 751.83 C653.93,750.55 654.48,747.03 654.72,744.00 L 655.16 738.50 L 679.12 738.46 L 703.08 738.42 L 702.79 745.96 L 702.50 753.50 L 697.50 753.14 C694.75,752.94 691.45,752.72 690.17,752.64 L 687.84 752.50 ZM 576.45 805.09 C576.14,805.59 572.65,805.90 568.69,805.78 C564.74,805.66 554.84,805.42 546.71,805.25 C536.15,805.03 531.81,804.60 531.54,803.72 C531.33,803.05 530.94,787.99 530.67,770.25 L 530.19 738.00 L 550.24 738.00 L 549.50 764.16 L 548.75 790.32 L 563.52 789.68 L 578.29 789.05 L 577.65 796.61 C577.30,800.77 576.76,804.58 576.45,805.09 ZM 337.26 794.00 L 336.50 804.50 L 330.00 804.65 C329.22,804.67 328.51,804.70 327.85,804.72 C324.83,804.83 322.97,804.90 321.82,804.03 C319.98,802.64 319.93,798.86 319.82,789.05 C319.81,787.71 319.79,786.26 319.77,784.68 C319.57,770.71 319.62,766.45 317.95,765.61 C317.22,765.25 316.17,765.53 314.64,765.94 C314.43,765.99 314.22,766.05 314.00,766.11 C312.81,766.42 312.44,765.22 312.20,760.25 C312.04,756.81 312.33,754.00 312.84,754.00 C313.36,754.00 316.51,751.99 319.85,749.53 C325.86,745.11 325.98,745.07 331.71,745.78 L 337.50 746.51 L 337.76 765.00 C337.90,775.18 337.68,788.22 337.26,794.00 ZM 270.00 870.99 C270.00,877.20 269.78,878.00 268.11,878.00 C267.07,878.00 265.17,877.15 263.89,876.11 L 261.56 874.23 L 263.49 870.65 C265.71,866.52 265.05,865.20 261.54,866.80 C259.83,867.58 258.87,867.60 258.42,866.88 C258.26,866.60 258.12,866.40 258.10,866.18 C258.03,865.49 259.09,864.67 263.73,861.11 L 263.90 860.98 C269.05,857.02 267.97,855.95 261.93,859.04 C258.31,860.88 257.34,861.01 255.10,859.95 C252.57,858.74 252.65,858.67 258.00,857.60 C262.67,856.67 263.45,856.20 263.16,854.50 C262.97,853.40 262.81,851.49 262.80,850.25 C262.80,849.01 262.34,848.00 261.80,848.00 C260.23,848.00 254.00,844.85 254.00,844.06 C254.00,843.67 256.78,842.84 260.17,842.20 C267.01,840.93 268.29,839.81 267.55,835.75 C267.12,833.41 267.39,833.00 269.33,833.00 C272.28,833.00 275.51,835.36 274.59,836.85 C274.20,837.48 272.78,838.00 271.44,838.00 C270.10,838.00 269.00,838.43 269.00,838.96 C269.00,839.54 271.54,839.69 275.36,839.33 C283.19,838.60 285.34,840.43 277.82,841.43 C271.85,842.22 267.51,844.22 266.60,846.61 C265.61,849.18 266.59,849.42 270.52,847.56 C274.52,845.66 277.00,846.64 277.00,850.12 C277.00,852.81 280.06,852.50 284.93,849.31 L 289.04 846.62 L 286.27 845.39 L 283.50 844.16 L 286.50 844.07 C290.49,843.94 291.93,842.90 292.85,839.48 C293.97,835.29 295.49,835.41 297.82,839.88 C299.63,843.35 299.70,844.00 298.41,845.07 C295.97,847.10 297.40,848.47 301.65,848.16 C304.33,847.97 306.07,848.39 306.94,849.42 C308.64,851.47 307.58,854.00 305.03,854.00 C303.91,854.00 303.00,854.59 303.00,855.31 C303.00,856.03 301.74,857.56 300.20,858.70 C297.52,860.67 297.41,861.08 297.81,867.37 C298.31,875.21 297.22,876.17 290.76,873.64 C287.00,872.16 286.48,872.16 284.89,873.60 C282.59,875.68 279.58,875.02 279.19,872.34 C278.60,868.22 286.28,865.22 289.00,868.50 C291.08,871.01 293.00,870.29 293.00,867.00 C293.00,864.18 292.77,864.00 289.09,864.00 C285.95,864.00 284.67,863.39 282.59,860.92 C281.17,859.23 280.00,856.98 280.00,855.92 C280.00,853.52 278.93,853.49 275.88,855.83 C274.57,856.84 272.68,857.96 271.69,858.32 C270.69,858.69 270.14,859.42 270.47,859.96 C270.85,860.57 271.99,860.51 273.56,859.79 C275.28,859.00 276.37,858.97 277.09,859.69 C277.81,860.41 276.88,861.23 274.07,862.36 L 270.00 863.98 ZM 211.91 873.99 C209.62,879.30 209.36,879.52 207.00,878.00 C206.18,877.47 204.49,877.02 203.25,877.02 C200.44,877.00 200.37,875.87 203.07,874.19 C206.90,871.80 210.90,858.62 210.96,848.17 L 211.00 842.84 L 213.95 843.49 C215.84,843.90 220.33,843.21 226.34,841.57 C231.53,840.16 236.92,839.00 238.33,839.00 C241.08,839.00 242.91,840.82 241.22,841.86 C240.65,842.22 240.41,843.72 240.70,845.20 C241.08,847.19 241.89,847.97 243.85,848.19 C247.52,848.62 247.61,851.17 244.01,853.20 C240.61,855.13 240.17,856.60 242.76,857.42 C245.55,858.31 254.25,866.74 253.79,868.12 C253.57,868.80 252.66,869.81 251.77,870.37 C250.48,871.19 249.23,870.36 245.49,866.20 C242.92,863.34 240.43,861.00 239.96,861.00 C239.48,861.00 238.96,863.81 238.80,867.25 C238.54,872.69 238.25,873.50 236.54,873.50 C234.82,873.50 231.13,869.32 229.64,865.70 C229.33,864.93 228.42,865.40 227.12,867.00 C225.36,869.17 224.82,869.34 223.06,868.25 C221.94,867.56 220.35,867.00 219.51,867.00 C217.20,867.00 217.71,863.50 220.50,860.18 C223.75,856.32 223.66,855.81 219.79,856.19 C216.71,856.49 216.53,856.75 215.32,862.74 C214.63,866.17 213.09,871.23 211.91,873.99 ZM 213.50 788.19 C215.73,789.62 217.74,790.00 221.32,789.70 C235.59,788.47 241.87,769.89 231.87,758.50 C226.24,752.10 216.80,751.60 210.23,757.37 C205.93,761.15 204.00,765.49 204.00,771.40 C204.00,778.92 206.82,783.91 213.50,788.19 ZM 149.42 880.39 C147.30,881.20 114.51,881.17 113.69,880.36 C112.66,879.33 113.96,878.00 116.00,878.00 C118.58,878.00 119.64,875.94 117.64,874.82 C115.22,873.46 115.63,872.24 119.12,870.44 L 122.24 868.82 L 119.12 866.93 C115.45,864.69 114.99,861.23 118.00,858.50 C121.25,855.56 120.60,853.64 116.58,854.29 C114.20,854.68 113.00,854.43 112.63,853.48 C112.26,852.51 113.60,851.81 117.30,851.03 C120.16,850.44 123.18,849.50 124.00,848.96 C125.31,848.09 125.28,847.83 123.75,846.93 C122.79,846.36 122.00,845.09 122.00,844.09 C122.00,842.94 120.89,841.97 118.92,841.39 C114.80,840.19 115.07,838.80 119.69,837.50 C122.24,836.78 123.50,835.85 123.51,834.67 C123.52,832.93 125.58,831.04 127.51,831.02 C128.07,831.01 128.97,832.01 129.51,833.25 C130.23,834.87 131.21,835.42 133.00,835.21 C139.98,834.39 140.50,834.47 140.50,836.44 C140.50,838.34 140.12,838.52 131.68,840.43 C128.38,841.18 128.60,843.19 132.07,844.04 C133.73,844.44 134.40,845.21 134.17,846.46 C133.89,848.04 134.35,848.20 137.67,847.68 C139.78,847.35 143.41,846.78 145.73,846.41 C149.23,845.86 150.08,846.05 150.64,847.51 C151.74,850.36 149.82,852.13 143.51,854.08 C137.07,856.07 135.37,855.83 138.81,853.42 C143.06,850.45 141.44,849.67 132.25,850.28 C123.48,850.86 117.85,852.17 119.58,853.24 C120.09,853.55 122.89,853.34 125.81,852.76 C129.63,852.01 131.42,852.02 132.22,852.82 C133.62,854.22 129.33,856.00 124.56,856.00 C121.41,856.00 118.03,858.36 119.32,859.65 C119.65,859.98 121.94,859.75 124.40,859.13 C129.98,857.73 137.00,857.66 137.00,859.01 C137.00,859.57 136.55,860.92 136.00,862.01 C135.45,863.11 134.56,864.88 134.02,865.96 C133.26,867.47 133.43,868.14 134.77,868.90 C136.32,869.77 136.15,870.24 133.07,873.42 C131.18,875.37 129.88,877.22 130.19,877.52 C130.93,878.26 140.11,876.15 141.63,874.89 C142.48,874.19 144.09,874.52 146.92,875.96 C151.27,878.18 151.97,879.41 149.42,880.39 ZM 326.42 879.69 C325.03,881.51 323.36,882.96 322.70,882.92 C320.63,882.78 316.00,880.86 316.05,880.17 C316.08,879.80 318.21,878.15 320.79,876.50 C326.45,872.86 332.49,862.58 329.94,860.91 C328.72,860.11 328.78,859.80 330.31,858.90 C331.67,858.10 331.84,857.51 331.01,856.51 C330.41,855.79 330.21,854.02 330.57,852.60 C330.98,850.94 330.80,850.00 330.08,850.00 C327.24,850.00 327.91,846.68 331.48,843.02 C335.27,839.14 335.45,837.00 332.00,837.00 C330.96,837.00 329.84,836.55 329.50,836.00 C329.12,835.38 331.01,835.00 334.51,835.00 L 334.87 835.00 C337.62,835.00 339.01,835.00 339.46,835.65 C339.92,836.31 339.42,837.65 338.40,840.36 L 338.27 840.71 C337.93,841.61 339.13,841.77 342.88,841.33 C353.50,840.07 356.38,846.57 348.75,854.57 C344.56,858.96 344.45,859.00 340.75,857.84 C336.41,856.48 335.86,856.81 335.54,860.91 C335.41,862.57 334.84,864.51 334.28,865.22 C333.72,865.92 332.28,868.73 331.10,871.44 C329.91,874.16 327.81,877.88 326.42,879.69 ZM 185.13 877.28 C179.75,882.31 176.95,883.06 173.22,880.44 C169.97,878.16 170.50,877.00 174.80,877.00 C177.80,877.00 179.26,876.31 181.68,873.75 C189.36,865.64 187.79,859.77 179.25,864.67 C174.16,867.59 170.82,864.07 174.66,859.82 C177.14,857.08 175.95,856.80 168.89,858.46 C157.58,861.13 150.34,859.97 157.14,856.58 C159.42,855.44 160.66,855.30 161.58,856.07 C162.96,857.21 180.29,853.98 184.28,851.85 C186.75,850.53 197.26,852.70 196.70,854.42 C196.50,855.01 193.90,855.62 190.92,855.76 C179.29,856.32 177.06,858.74 187.75,859.20 C193.92,859.47 194.53,859.70 194.82,861.79 C195.28,864.99 191.07,871.73 185.13,877.28 ZM 277.50 801.96 C273.72,805.73 269.53,806.55 265.20,804.37 C258.30,800.88 256.97,792.83 262.40,787.40 C266.98,782.82 272.45,782.65 277.23,786.92 C280.02,789.41 280.50,790.51 280.50,794.40 C280.50,798.14 279.96,799.50 277.50,801.96 ZM 186.37 849.03 C185.89,849.05 182.43,849.90 178.69,850.92 C173.11,852.44 171.97,852.52 172.42,851.36 C172.73,850.55 171.57,848.62 169.73,846.88 C167.67,844.93 167.17,844.03 168.33,844.41 C169.54,844.80 170.03,844.57 169.76,843.75 C169.53,843.06 168.37,842.36 167.17,842.18 C164.97,841.86 164.07,840.00 166.11,840.00 C166.79,840.00 166.98,839.04 166.59,837.50 C165.86,834.59 167.43,834.18 170.09,836.58 C171.69,838.03 172.43,837.98 178.77,835.94 C189.87,832.36 195.19,835.12 189.16,841.33 C186.90,843.67 186.22,845.13 186.65,846.76 C186.97,847.99 186.84,849.01 186.37,849.03 ZM 481.58 778.13 C481.88,778.61 484.57,779.00 487.56,779.00 C492.07,779.00 493.00,778.70 493.00,777.25 C493.01,774.00 488.70,760.93 487.73,761.26 C486.47,761.68 480.88,777.00 481.58,778.13 ZM 612.49 777.98 C613.41,779.47 622.97,779.27 623.52,777.75 C624.11,776.12 619.66,761.72 618.44,761.32 C617.25,760.92 611.65,776.62 612.49,777.98 ZM 733.47 777.95 C734.27,779.24 743.66,779.36 744.45,778.08 C745.16,776.93 740.20,761.00 739.13,761.00 C737.96,761.00 732.71,776.72 733.47,777.95 ZM 217.00 850.13 C217.00,852.26 217.43,854.00 217.95,854.00 C220.06,854.00 224.00,851.59 224.00,850.31 C224.00,848.10 226.91,847.61 228.96,849.47 C232.33,852.52 236.51,849.85 234.14,846.17 C233.48,845.14 231.43,845.00 225.14,845.55 L 217.00 846.26 ZM 175.53 845.03 C177.59,847.31 179.51,846.56 183.39,841.95 C187.86,836.63 186.76,836.11 178.41,839.60 C174.12,841.39 173.43,842.71 175.53,845.03 ZM 319.67 848.65 C320.68,849.46 321.02,851.40 320.81,855.15 L 320.50 860.50 L 318.16 858.16 C316.56,856.56 316.00,855.13 316.39,853.66 C316.71,852.47 317.01,849.92 317.07,848.00 C317.12,846.08 317.40,845.17 317.69,846.00 C317.99,846.83 318.88,848.02 319.67,848.65 ZM 341.38 852.25 C340.59,854.92 343.68,854.42 345.55,851.56 C347.51,848.57 347.11,843.63 344.87,843.21 C343.68,842.98 343.06,843.93 342.57,846.70 C342.20,848.79 341.66,851.29 341.38,852.25 ZM 110.28 853.31 C111.64,855.39 111.63,855.83 110.15,857.76 C108.87,859.41 108.10,859.67 106.75,858.90 C104.74,857.75 104.43,853.97 106.20,852.20 C107.90,850.50 108.56,850.68 110.28,853.31 ZM 309.70 870.34 C308.81,872.66 306.73,872.41 304.17,869.69 C301.79,867.15 301.28,864.00 303.25,864.00 C305.69,864.01 310.37,868.60 309.70,870.34 ZM 346.82 876.36 C347.23,878.43 346.37,878.37 342.00,876.05 C338.69,874.29 332.91,869.00 334.29,869.00 C334.86,869.00 340.48,871.59 345.00,873.94 C345.83,874.36 346.65,875.45 346.82,876.36 ZM 226.44 838.47 C223.60,840.62 222.11,840.26 224.75,838.06 C227.35,835.88 227.59,835.00 225.56,835.00 C224.77,835.00 223.80,834.49 223.42,833.87 C222.91,833.04 224.03,832.93 227.49,833.45 C230.11,833.84 232.87,834.40 233.63,834.69 C236.16,835.66 235.03,837.00 231.69,837.00 C229.87,837.00 227.51,837.66 226.44,838.47 ZM 286.25 858.34 C288.33,859.18 288.57,859.09 291.00,856.50 C294.06,853.25 292.88,852.21 288.49,854.30 C284.88,856.02 284.08,857.46 286.25,858.34 ZM 335.00 851.68 C335.00,853.57 335.42,854.86 335.93,854.55 C337.15,853.79 339.36,847.03 338.62,846.29 C337.33,845.00 335.00,848.47 335.00,851.68 ZM 119.53 864.05 C120.43,865.50 122.20,865.19 125.50,863.00 L 128.50 861.01 L 125.68 861.01 C122.26,861.00 118.73,862.75 119.53,864.05 ZM 341.42 863.85 C337.94,865.44 336.46,865.36 337.87,863.66 C338.48,862.92 338.69,862.02 338.32,861.66 C337.96,861.30 338.84,861.00 340.27,861.00 C343.86,861.00 344.45,862.47 341.42,863.85 ZM 287.00 849.95 C287.00,851.22 292.30,849.61 292.77,848.20 C292.99,847.54 292.65,847.00 292.02,847.00 C290.31,847.00 287.00,848.94 287.00,849.95 ZM 324.35 865.00 C322.70,868.31 322.42,868.49 321.46,866.94 C320.80,865.87 323.64,862.00 325.08,862.00 C325.50,862.00 325.17,863.35 324.35,865.00 ZM 233.69 866.36 C234.63,867.30 236.27,864.24 235.50,862.99 C235.16,862.45 234.46,862.00 233.94,862.00 C232.85,862.00 232.66,865.33 233.69,866.36 ZM 323.50 837.00 C323.50,837.73 322.94,838.52 322.25,838.75 C321.51,839.00 321.00,838.29 321.00,837.00 C321.00,835.71 321.51,835.00 322.25,835.25 C322.94,835.48 323.50,836.27 323.50,837.00 ZM 233.00 855.00 C233.00,855.55 233.45,856.00 234.00,856.00 C234.55,856.00 235.00,855.55 235.00,855.00 C235.00,854.45 234.55,854.00 234.00,854.00 C233.45,854.00 233.00,854.45 233.00,855.00 ZM 264.00 863.00 C264.00,863.55 264.45,864.00 265.00,864.00 C265.55,864.00 266.00,863.55 266.00,863.00 C266.00,862.45 265.55,862.00 265.00,862.00 C264.45,862.00 264.00,862.45 264.00,863.00 Z" fill="rgb(6,7,6)"/>
<path d="M 454.50 704.12 C450.26,705.16 420.56,706.14 415.50,705.39 C395.60,702.48 390.38,701.57 383.59,699.87 C370.03,696.45 358.20,690.09 345.00,679.12 C318.65,657.21 295.77,626.96 277.98,590.50 C258.30,550.18 248.05,507.59 248.01,466.00 C248.00,455.89 249.44,435.91 250.52,431.25 L 251.04 429.00 L 351.00 429.00 L 351.00 436.54 C351.00,447.18 349.27,461.59 346.39,475.00 C341.64,497.12 340.92,502.47 340.91,516.00 C340.89,537.49 345.25,550.65 355.25,559.27 C368.68,570.83 372.37,575.30 379.00,588.02 C391.99,612.93 405.93,621.95 434.44,623.90 C462.49,625.82 489.92,620.10 517.87,606.49 C540.30,595.57 557.76,583.16 573.59,566.86 C584.86,555.27 585.70,553.96 588.11,544.31 C591.41,531.09 595.72,526.48 610.83,519.97 C644.98,505.25 686.26,467.92 702.14,437.41 L 706.50 429.02 L 740.75 429.01 L 775.00 429.00 L 775.00 451.53 C775.00,504.59 765.25,551.84 746.11,591.50 C734.04,616.51 723.10,632.16 705.58,649.50 C683.80,671.05 658.34,685.93 627.52,695.10 C613.57,699.25 605.41,699.77 541.50,700.48 C486.97,701.09 462.66,702.10 454.50,704.12 ZM 127.97 850.64 C125.01,851.16 124.16,851.85 128.19,851.93 C129.48,851.95 130.44,852.09 131.12,852.29 C130.07,852.09 128.41,852.25 125.81,852.76 C122.89,853.34 120.09,853.55 119.58,853.24 C118.15,852.36 121.74,851.31 127.97,850.64 ZM 233.00 855.00 C233.00,854.45 233.45,854.00 234.00,854.00 C234.55,854.00 235.00,854.45 235.00,855.00 C235.00,855.55 234.55,856.00 234.00,856.00 C233.45,856.00 233.00,855.55 233.00,855.00 ZM 264.00 863.00 C264.00,862.45 264.45,862.00 265.00,862.00 C265.55,862.00 266.00,862.45 266.00,863.00 C266.00,863.55 265.55,864.00 265.00,864.00 C264.45,864.00 264.00,863.55 264.00,863.00 ZM 118.03 858.47 C118.09,858.40 118.16,858.33 118.22,858.26 C120.11,856.25 120.23,855.75 118.97,854.94 C118.16,854.41 116.53,854.21 115.35,854.48 C114.04,854.79 113.00,854.43 112.66,853.55 C112.65,853.54 112.65,853.53 112.65,853.52 C113.03,854.44 114.23,854.67 116.58,854.29 C120.59,853.64 121.24,855.55 118.03,858.47 ZM 136.95 850.09 C141.86,850.08 142.19,851.06 138.81,853.42 C141.97,851.21 141.53,850.24 136.95,850.09 ZM 116.13 863.30 C116.44,864.64 117.45,865.91 119.12,866.93 C117.38,865.87 116.38,864.64 116.13,863.30 ZM 130.33 855.08 C128.96,855.61 126.96,856.00 124.56,856.00 C126.75,856.00 128.85,855.62 130.33,855.08 Z" fill="rgb(147,42,44)"/>
<path d="M 460.45 613.49 C447.66,616.20 430.45,614.82 421.74,610.39 C411.52,605.18 403.78,596.26 397.61,582.55 C395.62,578.14 392.20,573.81 384.42,565.83 C370.58,551.64 368.49,547.39 368.51,533.50 C368.52,525.42 368.97,522.40 370.82,517.79 C378.56,498.53 402.25,474.33 433.96,453.30 C454.17,439.90 474.84,429.02 502.00,417.50 C519.17,410.22 540.01,399.68 551.53,392.46 C592.83,366.58 617.65,335.06 623.05,301.62 C624.55,292.31 623.80,274.87 621.52,266.00 C619.04,256.39 610.83,240.33 605.10,233.91 C592.43,219.68 574.53,213.44 557.73,217.39 C548.81,219.48 543.77,222.16 537.43,228.16 C530.03,235.16 527.71,240.99 528.15,251.49 C528.62,262.48 531.91,268.11 540.40,272.45 C545.46,275.04 547.57,275.49 556.18,275.84 C563.03,276.11 569.08,275.68 575.57,274.46 C580.77,273.48 585.33,272.99 585.71,273.37 C586.70,274.37 584.37,282.58 581.28,289.00 C579.82,292.02 576.22,297.03 573.28,300.13 C560.10,313.99 538.62,316.44 518.70,306.35 C506.05,299.94 494.41,283.41 487.49,262.00 C485.19,254.90 484.65,251.18 484.25,239.47 C483.51,218.29 487.12,204.37 498.26,185.42 C504.45,174.89 522.12,156.50 531.18,151.18 C547.13,141.81 568.38,138.73 588.52,142.89 C607.64,146.83 620.20,154.55 625.97,165.90 C632.43,178.59 640.92,184.98 668.40,197.80 C678.36,202.44 688.38,207.76 690.67,209.62 C695.55,213.58 700.33,222.45 702.06,230.78 C703.64,238.39 702.70,256.53 700.26,265.50 C699.21,269.35 697.04,275.65 695.44,279.50 L 692.53 286.50 L 692.84 313.69 C693.18,342.88 692.54,350.24 688.35,366.00 C684.73,379.62 681.00,386.01 670.51,396.59 C660.15,407.05 647.34,415.84 629.50,424.73 C605.11,436.89 582.39,445.15 539.00,457.62 C506.58,466.94 492.22,472.21 475.31,481.02 C427.57,505.89 404.79,537.71 416.02,563.83 C418.89,570.49 426.28,577.26 433.28,579.63 C439.39,581.69 451.56,581.98 457.60,580.21 C463.08,578.60 467.94,575.20 470.81,570.98 C472.77,568.10 473.11,566.54 472.79,561.91 C472.46,557.23 471.55,555.00 467.22,548.24 C460.75,538.16 457.92,531.08 457.68,524.39 C457.53,519.93 457.94,518.65 460.59,515.37 C469.41,504.46 495.64,496.39 546.00,489.11 C577.61,484.53 594.14,477.94 650.69,447.37 C661.25,441.67 670.65,437.00 671.58,437.00 C673.05,437.00 673.19,437.74 672.62,442.56 C671.22,454.49 664.26,466.71 651.51,479.61 C638.02,493.25 620.30,505.16 592.24,519.42 C577.22,527.05 577.16,527.11 568.01,543.98 C560.91,557.09 558.44,560.36 552.64,564.34 C549.08,566.78 547.77,567.12 543.24,566.76 C534.21,566.03 530.09,560.16 527.97,545.00 C526.09,531.55 522.92,528.88 516.48,535.32 C512.26,539.54 510.42,545.96 508.99,561.50 C508.38,568.10 507.41,575.30 506.83,577.49 C502.41,594.43 484.39,608.42 460.45,613.49 ZM 361.90 512.15 C359.71,515.37 357.70,518.00 357.43,518.00 C355.01,518.00 356.02,497.91 359.02,486.50 C364.44,465.88 373.36,450.67 389.50,434.51 C399.82,424.18 403.45,421.31 415.44,414.00 C426.91,407.01 431.36,403.55 440.57,394.50 C450.33,384.90 452.30,382.38 456.07,374.69 C459.95,366.78 460.43,364.97 460.81,357.13 C461.16,349.71 460.89,347.61 458.99,343.19 C456.54,337.49 451.09,332.00 447.90,332.00 C442.17,332.00 439.69,336.07 437.63,348.84 C435.69,360.89 433.01,365.74 426.50,369.00 C422.34,371.08 420.07,371.50 413.00,371.49 C405.73,371.49 403.68,371.09 398.80,368.69 C392.21,365.47 388.73,361.74 385.09,354.00 C382.78,349.09 382.51,347.32 382.56,337.50 C382.62,324.65 384.42,318.81 391.76,307.67 C396.95,299.80 403.75,294.01 413.00,289.60 C419.05,286.72 420.26,286.50 430.50,286.50 C444.13,286.50 451.36,288.73 463.27,296.63 C471.16,301.86 475.71,303.65 493.35,308.51 C500.68,310.52 503.42,313.23 505.63,320.65 C508.04,328.72 508.05,346.82 505.65,357.50 C501.00,378.14 490.00,392.93 470.18,405.16 C427.65,431.41 398.69,454.83 383.80,475.00 C382.38,476.92 377.76,484.75 373.54,492.40 C369.32,500.04 364.08,508.93 361.90,512.15 Z" fill="rgb(210,42,42)"/>
<path d="M 0.00 512.00 L 0.00 0.00 L 512.00 0.00 L 1024.00 0.00 L 1024.00 512.00 L 1024.00 1024.00 L 512.00 1024.00 L 0.00 1024.00 L 0.00 512.00 ZM 326.42 879.69 C327.81,877.88 329.91,874.16 331.10,871.44 C332.28,868.73 333.72,865.92 334.28,865.22 C334.84,864.51 335.41,862.57 335.54,860.91 C335.86,856.81 336.41,856.48 340.75,857.84 C344.45,859.00 344.56,858.96 348.75,854.57 C356.38,846.57 353.50,840.07 342.88,841.33 C339.13,841.77 337.93,841.61 338.27,840.71 C340.46,834.88 340.54,835.00 334.51,835.00 C331.01,835.00 329.12,835.38 329.50,836.00 C329.84,836.55 330.96,837.00 332.00,837.00 C335.45,837.00 335.27,839.14 331.48,843.02 C327.91,846.68 327.24,850.00 330.08,850.00 C330.80,850.00 330.98,850.94 330.57,852.60 C330.21,854.02 330.41,855.79 331.01,856.51 C331.84,857.51 331.67,858.10 330.31,858.90 C328.78,859.80 328.72,860.11 329.94,860.91 C332.49,862.58 326.45,872.86 320.79,876.50 C318.21,878.15 316.08,879.80 316.05,880.17 C316.00,880.86 320.63,882.78 322.70,882.92 C323.36,882.96 325.03,881.51 326.42,879.69 ZM 185.13 877.28 C191.07,871.73 195.28,864.99 194.82,861.79 C194.53,859.70 193.92,859.47 187.75,859.20 C177.06,858.74 179.29,856.32 190.92,855.76 C193.90,855.62 196.50,855.01 196.70,854.42 C197.26,852.70 186.75,850.53 184.28,851.85 C180.29,853.98 162.96,857.21 161.58,856.07 C160.66,855.30 159.42,855.44 157.14,856.58 C150.34,859.97 157.58,861.13 168.89,858.46 C175.95,856.80 177.14,857.08 174.66,859.82 C170.82,864.07 174.16,867.59 179.25,864.67 C187.79,859.77 189.36,865.64 181.68,873.75 C179.26,876.31 177.80,877.00 174.80,877.00 C170.50,877.00 169.97,878.16 173.22,880.44 C176.95,883.06 179.75,882.31 185.13,877.28 ZM 149.42 880.39 C151.97,879.41 151.27,878.18 146.92,875.96 C144.09,874.52 142.48,874.19 141.63,874.89 C140.11,876.15 130.93,878.26 130.19,877.52 C129.88,877.22 131.18,875.37 133.07,873.42 C136.15,870.24 136.32,869.77 134.77,868.90 C133.43,868.14 133.26,867.47 134.02,865.96 C134.56,864.88 135.45,863.11 136.00,862.01 C136.55,860.92 137.00,859.57 137.00,859.01 C137.00,857.66 129.98,857.73 124.40,859.13 C121.94,859.75 119.65,859.98 119.32,859.65 C118.03,858.36 121.41,856.00 124.56,856.00 C132.23,856.00 135.73,852.07 128.19,851.93 C121.81,851.81 127.66,850.15 134.75,850.07 C141.34,850.00 142.42,850.89 138.81,853.42 C135.37,855.83 137.07,856.07 143.51,854.08 C149.82,852.13 151.74,850.36 150.64,847.51 C150.08,846.05 149.23,845.86 145.73,846.41 C143.41,846.78 139.78,847.35 137.67,847.68 C134.35,848.20 133.89,848.04 134.17,846.46 C134.40,845.21 133.73,844.44 132.07,844.04 C128.60,843.19 128.38,841.18 131.68,840.43 C140.12,838.52 140.50,838.34 140.50,836.44 C140.50,834.47 139.98,834.39 133.00,835.21 C131.21,835.42 130.23,834.87 129.51,833.25 C128.97,832.01 128.07,831.01 127.51,831.02 C125.58,831.04 123.52,832.93 123.51,834.67 C123.50,835.85 122.24,836.78 119.69,837.50 C115.07,838.80 114.80,840.19 118.92,841.39 C120.89,841.97 122.00,842.94 122.00,844.09 C122.00,845.09 122.79,846.36 123.75,846.93 C125.28,847.83 125.31,848.09 124.00,848.96 C123.18,849.50 120.16,850.44 117.30,851.03 C113.46,851.84 112.25,852.49 112.66,853.55 C113.00,854.43 114.04,854.79 115.35,854.48 C116.53,854.21 118.16,854.41 118.97,854.94 C120.23,855.75 120.11,856.25 118.22,858.26 C115.06,861.62 115.38,864.65 119.12,866.93 L 122.24 868.82 L 119.12 870.44 C115.63,872.24 115.22,873.46 117.64,874.82 C119.64,875.94 118.58,878.00 116.00,878.00 C113.96,878.00 112.66,879.33 113.69,880.36 C114.51,881.17 147.30,881.20 149.42,880.39 ZM 211.91 873.99 C213.09,871.23 214.63,866.17 215.32,862.74 C216.53,856.75 216.71,856.49 219.79,856.19 C223.66,855.81 223.75,856.32 220.50,860.18 C217.71,863.50 217.20,867.00 219.51,867.00 C220.35,867.00 221.94,867.56 223.06,868.25 C224.82,869.34 225.36,869.17 227.12,867.00 C228.42,865.40 229.33,864.93 229.64,865.70 C231.13,869.32 234.82,873.50 236.54,873.50 C238.25,873.50 238.54,872.69 238.80,867.25 C238.96,863.81 239.48,861.00 239.96,861.00 C240.43,861.00 242.92,863.34 245.49,866.20 C249.23,870.36 250.48,871.19 251.77,870.37 C252.66,869.81 253.57,868.80 253.79,868.12 C254.25,866.74 245.55,858.31 242.76,857.42 C240.17,856.60 240.61,855.13 244.01,853.20 C247.61,851.17 247.52,848.62 243.85,848.19 C241.89,847.97 241.08,847.19 240.70,845.20 C240.41,843.72 240.65,842.22 241.22,841.86 C242.91,840.82 241.08,839.00 238.33,839.00 C236.92,839.00 231.53,840.16 226.34,841.57 C220.33,843.21 215.84,843.90 213.95,843.49 L 211.00 842.84 L 210.96 848.17 C210.90,858.62 206.90,871.80 203.07,874.19 C200.37,875.87 200.44,877.00 203.25,877.02 C204.49,877.02 206.18,877.47 207.00,878.00 C209.36,879.52 209.62,879.30 211.91,873.99 ZM 270.00 870.99 L 270.00 863.98 L 274.07 862.36 C276.88,861.23 277.81,860.41 277.09,859.69 C276.37,858.97 275.28,859.00 273.56,859.79 C271.99,860.51 270.85,860.57 270.47,859.96 C270.14,859.42 270.69,858.69 271.69,858.32 C272.68,857.96 274.57,856.84 275.88,855.83 C278.93,853.49 280.00,853.52 280.00,855.92 C280.00,856.98 281.17,859.23 282.59,860.92 C284.67,863.39 285.95,864.00 289.09,864.00 C292.77,864.00 293.00,864.18 293.00,867.00 C293.00,870.29 291.08,871.01 289.00,868.50 C286.28,865.22 278.60,868.22 279.19,872.34 C279.58,875.02 282.59,875.68 284.89,873.60 C286.48,872.16 287.00,872.16 290.76,873.64 C297.22,876.17 298.31,875.21 297.81,867.37 C297.41,861.08 297.52,860.67 300.20,858.70 C301.74,857.56 303.00,856.03 303.00,855.31 C303.00,854.59 303.91,854.00 305.03,854.00 C307.58,854.00 308.64,851.47 306.94,849.42 C306.07,848.39 304.33,847.97 301.65,848.16 C297.40,848.47 295.97,847.10 298.41,845.07 C299.70,844.00 299.63,843.35 297.82,839.88 C295.49,835.41 293.97,835.29 292.85,839.48 C291.93,842.90 290.49,843.94 286.50,844.07 L 283.50 844.16 L 286.27 845.39 L 289.04 846.62 L 284.93 849.31 C280.06,852.50 277.00,852.81 277.00,850.12 C277.00,846.64 274.52,845.66 270.52,847.56 C266.59,849.42 265.61,849.18 266.60,846.61 C267.51,844.22 271.85,842.22 277.82,841.43 C285.34,840.43 283.19,838.60 275.36,839.33 C271.54,839.69 269.00,839.54 269.00,838.96 C269.00,838.43 270.10,838.00 271.44,838.00 C272.78,838.00 274.20,837.48 274.59,836.85 C275.51,835.36 272.28,833.00 269.33,833.00 C267.39,833.00 267.12,833.41 267.55,835.75 C268.29,839.81 267.01,840.93 260.17,842.20 C256.78,842.84 254.00,843.67 254.00,844.06 C254.00,844.85 260.23,848.00 261.80,848.00 C262.34,848.00 262.80,849.01 262.80,850.25 C262.81,851.49 262.97,853.40 263.16,854.50 C263.45,856.20 262.67,856.67 258.00,857.60 C252.65,858.67 252.57,858.74 255.10,859.95 C257.34,861.01 258.31,860.88 261.93,859.04 C267.97,855.95 269.05,857.02 263.90,860.98 C257.66,865.77 257.71,865.72 258.42,866.88 C258.87,867.60 259.83,867.58 261.54,866.80 C265.05,865.20 265.71,866.52 263.49,870.65 L 261.56 874.23 L 263.89 876.11 C265.17,877.15 267.07,878.00 268.11,878.00 C269.78,878.00 270.00,877.20 270.00,870.99 ZM 346.82 876.36 C346.65,875.45 345.83,874.36 345.00,873.94 C340.48,871.59 334.86,869.00 334.29,869.00 C332.91,869.00 338.69,874.29 342.00,876.05 C346.37,878.37 347.23,878.43 346.82,876.36 ZM 309.70 870.34 C310.37,868.60 305.69,864.01 303.25,864.00 C301.28,864.00 301.79,867.15 304.17,869.69 C306.73,872.41 308.81,872.66 309.70,870.34 ZM 324.35 865.00 C325.17,863.35 325.50,862.00 325.08,862.00 C323.64,862.00 320.80,865.87 321.46,866.94 C322.42,868.49 322.70,868.31 324.35,865.00 ZM 341.42 863.85 C344.45,862.47 343.86,861.00 340.27,861.00 C338.84,861.00 337.96,861.30 338.32,861.66 C338.69,862.02 338.48,862.92 337.87,863.66 C336.46,865.36 337.94,865.44 341.42,863.85 ZM 110.28 853.31 C108.56,850.68 107.90,850.50 106.20,852.20 C104.43,853.97 104.74,857.75 106.75,858.90 C108.10,859.67 108.87,859.41 110.15,857.76 C111.63,855.83 111.64,855.39 110.28,853.31 ZM 319.67 848.65 C318.88,848.02 317.99,846.83 317.69,846.00 C317.40,845.17 317.12,846.08 317.07,848.00 C317.01,849.92 316.71,852.47 316.39,853.66 C316.00,855.13 316.56,856.56 318.16,858.16 L 320.50 860.50 L 320.81 855.15 C321.02,851.40 320.68,849.46 319.67,848.65 ZM 186.37 849.03 C186.84,849.01 186.97,847.99 186.65,846.76 C186.22,845.13 186.90,843.67 189.16,841.33 C195.19,835.12 189.87,832.36 178.77,835.94 C172.43,837.98 171.69,838.03 170.09,836.58 C167.43,834.18 165.86,834.59 166.59,837.50 C166.98,839.04 166.79,840.00 166.11,840.00 C164.07,840.00 164.97,841.86 167.17,842.18 C168.37,842.36 169.53,843.06 169.76,843.75 C170.03,844.57 169.54,844.80 168.33,844.41 C167.17,844.03 167.67,844.93 169.73,846.88 C171.57,848.62 172.73,850.55 172.42,851.36 C171.97,852.52 173.11,852.44 178.69,850.92 C182.43,849.90 185.89,849.05 186.37,849.03 ZM 226.44 838.47 C227.51,837.66 229.87,837.00 231.69,837.00 C235.03,837.00 236.16,835.66 233.63,834.69 C232.87,834.40 230.11,833.84 227.49,833.45 C224.03,832.93 222.91,833.04 223.42,833.87 C223.80,834.49 224.77,835.00 225.56,835.00 C227.59,835.00 227.35,835.88 224.75,838.06 C222.11,840.26 223.60,840.62 226.44,838.47 ZM 323.50 837.00 C323.50,836.27 322.94,835.48 322.25,835.25 C321.51,835.00 321.00,835.71 321.00,837.00 C321.00,838.29 321.51,839.00 322.25,838.75 C322.94,838.52 323.50,837.73 323.50,837.00 ZM 234.35 803.65 C242.11,800.03 247.48,794.80 251.21,787.22 C254.24,781.07 254.50,779.77 254.49,771.02 C254.47,762.57 254.16,760.90 251.70,756.21 C245.95,745.25 237.75,739.17 225.70,736.95 C210.59,734.16 194.53,742.90 187.77,757.58 C184.51,764.67 184.56,778.33 187.87,785.70 C191.81,794.49 202.85,803.48 212.73,805.97 C218.56,807.44 228.52,806.37 234.35,803.65 ZM 277.50 801.96 C279.96,799.50 280.50,798.14 280.50,794.40 C280.50,790.51 280.02,789.41 277.23,786.92 C272.45,782.65 266.98,782.82 262.40,787.40 C256.97,792.83 258.30,800.88 265.20,804.37 C269.53,806.55 273.72,805.73 277.50,801.96 ZM 418.26 795.25 C420.72,789.34 423.53,782.36 424.50,779.75 C425.47,777.14 426.65,775.00 427.11,775.00 C427.57,775.00 428.07,781.64 428.22,789.75 L 428.50 804.50 L 437.50 804.50 L 446.50 804.50 L 446.76 771.25 L 447.03 738.00 L 438.25 738.00 L 429.47 738.00 L 420.72 755.55 C415.90,765.20 411.63,772.89 411.23,772.63 C410.83,772.38 406.69,764.48 402.02,755.09 L 393.55 738.00 L 384.77 738.00 L 376.00 738.00 L 376.00 771.03 C376.00,799.68 376.20,804.14 377.52,804.65 C378.36,804.97 382.45,804.91 386.61,804.52 L 394.18 803.81 L 393.84 789.41 C393.65,781.48 393.77,775.00 394.11,775.00 C394.44,775.00 396.64,779.39 398.99,784.75 C406.89,802.78 408.77,806.00 411.41,806.00 C413.50,806.00 414.35,804.66 418.26,795.25 ZM 576.45 805.09 C576.76,804.58 577.30,800.77 577.65,796.61 L 578.29 789.05 L 563.52 789.68 L 548.75 790.32 L 549.50 764.16 L 550.24 738.00 L 540.21 738.00 L 530.19 738.00 L 530.67 770.25 C530.94,787.99 531.33,803.05 531.54,803.72 C531.81,804.60 536.15,805.03 546.71,805.25 C554.84,805.42 564.74,805.66 568.69,805.78 C572.65,805.90 576.14,805.59 576.45,805.09 ZM 901.06 804.42 C906.59,803.16 909.04,803.06 913.06,803.92 C915.83,804.51 918.30,805.00 918.55,805.00 C918.80,805.00 919.00,797.01 919.00,787.25 L 919.00 769.50 L 909.25 769.50 L 899.50 769.50 L 899.70 772.00 C899.80,773.38 900.17,777.10 900.52,780.27 L 901.15 786.04 L 897.35 787.63 C889.40,790.95 879.00,787.78 875.47,780.94 C871.86,773.96 872.78,763.79 877.52,758.16 C882.07,752.75 894.38,752.76 900.55,758.18 C902.42,759.82 904.34,760.91 904.82,760.61 C905.31,760.31 907.62,757.59 909.95,754.57 L 914.19 749.07 L 912.17 746.24 C911.06,744.67 907.75,742.07 904.82,740.45 C899.88,737.71 898.76,737.50 889.00,737.50 C880.41,737.50 877.67,737.89 873.91,739.62 C867.78,742.46 862.31,748.11 859.12,754.91 C856.81,759.83 856.50,761.76 856.50,771.00 C856.50,780.48 856.78,782.11 859.41,787.80 C862.96,795.48 870.20,802.38 876.86,804.43 C883.09,806.35 892.60,806.34 901.06,804.42 ZM 126.75 804.35 L 132.00 803.72 L 132.00 786.36 C132.00,776.81 132.36,769.00 132.80,769.00 C133.23,769.00 139.40,776.68 146.50,786.07 C153.59,795.46 160.23,803.59 161.24,804.13 C162.32,804.71 165.96,804.83 170.04,804.43 L 177.00 803.74 L 177.20 775.37 C177.32,759.77 177.43,745.09 177.45,742.75 C177.50,738.76 177.32,738.48 174.50,738.16 C172.86,737.97 168.63,738.13 165.10,738.51 L 158.69 739.19 L 159.30 756.10 C159.68,766.56 159.55,773.00 158.96,773.00 C157.75,773.00 146.72,759.12 139.02,747.93 C131.49,736.97 130.91,736.49 126.87,737.89 C125.13,738.50 121.55,739.00 118.92,739.00 L 114.14 739.00 L 114.54 771.75 C114.75,789.76 114.95,804.61 114.96,804.75 C115.03,805.21 121.43,804.99 126.75,804.35 ZM 337.26 794.00 C337.68,788.22 337.90,775.18 337.76,765.00 L 337.50 746.51 L 331.71 745.78 C325.98,745.07 325.86,745.11 319.85,749.53 C316.51,751.99 313.36,754.00 312.84,754.00 C312.33,754.00 312.04,756.81 312.20,760.25 C312.44,765.22 312.81,766.42 314.00,766.11 C319.72,764.61 319.48,763.83 319.77,784.68 C320.08,806.58 319.23,804.91 330.00,804.65 L 336.50 804.50 L 337.26 794.00 ZM 473.36 802.75 C474.13,801.51 475.05,799.26 475.40,797.75 L 476.04 795.00 L 486.77 795.00 L 497.50 795.01 L 500.00 799.75 L 502.50 804.50 L 511.75 804.79 C519.34,805.02 521.00,804.81 521.00,803.61 C521.00,802.54 503.45,756.12 496.29,738.25 C495.94,737.39 493.17,737.00 487.37,737.00 C479.11,737.00 478.93,737.05 477.87,739.75 C475.32,746.23 454.87,801.59 454.69,802.49 C454.48,803.59 460.05,804.64 467.23,804.86 C471.13,804.98 472.20,804.61 473.36,802.75 ZM 603.69 803.75 C604.14,803.06 604.96,800.92 605.53,799.00 L 606.56 795.50 L 617.47 795.50 L 628.37 795.50 L 631.00 800.00 L 633.62 804.50 L 641.97 804.79 C646.56,804.95 650.71,804.69 651.20,804.20 C651.72,803.68 646.87,789.85 639.56,771.00 C632.67,753.24 626.91,738.59 626.77,738.45 C626.62,738.32 622.73,738.05 618.11,737.85 C611.44,737.57 609.55,737.81 608.86,739.00 C608.01,740.47 586.22,798.85 585.28,802.18 C584.90,803.51 585.62,803.95 588.65,804.27 C597.32,805.16 602.90,804.97 603.69,803.75 ZM 687.96 778.75 L 687.84 752.50 L 690.17 752.64 C691.45,752.72 694.75,752.94 697.50,753.14 L 702.50 753.50 L 702.79 745.96 L 703.08 738.42 L 679.12 738.46 L 655.16 738.50 L 654.72 744.00 C654.48,747.03 653.93,750.55 653.50,751.83 L 652.72 754.16 L 661.02 753.44 L 669.32 752.71 L 668.71 778.24 C668.37,792.28 668.37,804.04 668.71,804.38 C669.05,804.72 673.55,805.00 678.71,805.00 L 688.09 805.00 L 687.96 778.75 ZM 726.11 800.00 L 727.76 795.50 L 738.35 795.22 L 748.93 794.93 L 751.48 799.97 L 754.03 805.00 L 762.96 805.00 C767.87,805.00 772.11,804.63 772.40,804.17 C772.68,803.71 767.22,788.68 760.28,770.77 L 747.64 738.20 L 739.57 737.76 C734.55,737.50 731.07,737.74 730.37,738.42 C729.43,739.32 707.61,796.99 706.24,802.18 C705.74,804.09 709.40,804.78 718.98,804.60 L 724.45 804.50 L 726.11 800.00 ZM 800.77 786.75 C800.92,776.99 801.37,769.02 801.77,769.04 C802.17,769.06 807.45,775.66 813.50,783.70 C830.92,806.85 828.93,805.13 837.89,804.79 L 845.50 804.50 L 845.76 771.25 L 846.03 738.00 L 842.26 738.01 C840.19,738.01 836.07,738.31 833.11,738.66 L 827.72 739.31 L 828.24 756.66 C828.53,766.20 828.45,774.00 828.07,774.00 C827.32,774.00 814.05,756.79 805.71,745.00 C801.30,738.75 800.00,737.55 797.95,737.79 C796.60,737.95 792.69,738.34 789.25,738.65 L 783.00 739.23 L 783.00 771.45 C783.00,789.17 783.32,803.98 783.70,804.37 C784.09,804.76 788.03,804.95 792.45,804.79 L 800.50 804.50 L 800.77 786.75 ZM 454.50 704.12 C462.66,702.10 486.97,701.09 541.50,700.48 C605.41,699.77 613.57,699.25 627.52,695.10 C658.34,685.93 683.80,671.05 705.58,649.50 C723.10,632.16 734.04,616.51 746.11,591.50 C765.25,551.84 775.00,504.59 775.00,451.53 L 775.00 429.00 L 740.75 429.01 L 706.50 429.02 L 702.14 437.41 C686.26,467.92 644.98,505.25 610.83,519.97 C595.72,526.48 591.41,531.09 588.11,544.31 C585.70,553.96 584.86,555.27 573.59,566.86 C557.76,583.16 540.30,595.57 517.87,606.49 C489.92,620.10 462.49,625.82 434.44,623.90 C405.93,621.95 391.99,612.93 379.00,588.02 C372.37,575.30 368.68,570.83 355.25,559.27 C345.25,550.65 340.89,537.49 340.91,516.00 C340.92,502.47 341.64,497.12 346.39,475.00 C349.27,461.59 351.00,447.18 351.00,436.54 L 351.00 429.00 L 301.02 429.00 L 251.04 429.00 L 250.52 431.25 C249.44,435.91 248.00,455.89 248.01,466.00 C248.05,507.59 258.30,550.18 277.98,590.50 C295.77,626.96 318.65,657.21 345.00,679.12 C358.20,690.09 370.03,696.45 383.59,699.87 C390.38,701.57 395.60,702.48 415.50,705.39 C420.56,706.14 450.26,705.16 454.50,704.12 ZM 460.45 613.49 C484.39,608.42 502.41,594.43 506.83,577.49 C507.41,575.30 508.38,568.10 508.99,561.50 C510.42,545.96 512.26,539.54 516.48,535.32 C522.92,528.88 526.09,531.55 527.97,545.00 C530.09,560.16 534.21,566.03 543.24,566.76 C547.77,567.12 549.08,566.78 552.64,564.34 C558.44,560.36 560.91,557.09 568.01,543.98 C577.16,527.11 577.22,527.05 592.24,519.42 C620.30,505.16 638.02,493.25 651.51,479.61 C664.26,466.71 671.22,454.49 672.62,442.56 C673.19,437.74 673.05,437.00 671.58,437.00 C670.65,437.00 661.25,441.67 650.69,447.37 C594.14,477.94 577.61,484.53 546.00,489.11 C495.64,496.39 469.41,504.46 460.59,515.37 C457.94,518.65 457.53,519.93 457.68,524.39 C457.92,531.08 460.75,538.16 467.22,548.24 C471.55,555.00 472.46,557.23 472.79,561.91 C473.11,566.54 472.77,568.10 470.81,570.98 C467.94,575.20 463.08,578.60 457.60,580.21 C451.56,581.98 439.39,581.69 433.28,579.63 C426.28,577.26 418.89,570.49 416.02,563.83 C404.79,537.71 427.57,505.89 475.31,481.02 C492.22,472.21 506.58,466.94 539.00,457.62 C582.39,445.15 605.11,436.89 629.50,424.73 C647.34,415.84 660.15,407.05 670.51,396.59 C681.00,386.01 684.73,379.62 688.35,366.00 C692.54,350.24 693.18,342.88 692.84,313.69 L 692.53 286.50 L 695.44 279.50 C697.04,275.65 699.21,269.35 700.26,265.50 C702.70,256.53 703.64,238.39 702.06,230.78 C700.33,222.45 695.55,213.58 690.67,209.62 C688.38,207.76 678.36,202.44 668.40,197.80 C640.92,184.98 632.43,178.59 625.97,165.90 C620.20,154.55 607.64,146.83 588.52,142.89 C568.38,138.73 547.13,141.81 531.18,151.18 C522.12,156.50 504.45,174.89 498.26,185.42 C487.12,204.37 483.51,218.29 484.25,239.47 C484.65,251.18 485.19,254.90 487.49,262.00 C494.41,283.41 506.05,299.94 518.70,306.35 C538.62,316.44 560.10,313.99 573.28,300.13 C576.22,297.03 579.82,292.02 581.28,289.00 C584.37,282.58 586.70,274.37 585.71,273.37 C585.33,272.99 580.77,273.48 575.57,274.46 C569.08,275.68 563.03,276.11 556.18,275.84 C547.57,275.49 545.46,275.04 540.40,272.45 C531.91,268.11 528.62,262.48 528.15,251.49 C527.71,240.99 530.03,235.16 537.43,228.16 C543.77,222.16 548.81,219.48 557.73,217.39 C574.53,213.44 592.43,219.68 605.10,233.91 C610.83,240.33 619.04,256.39 621.52,266.00 C623.80,274.87 624.55,292.31 623.05,301.62 C617.65,335.06 592.83,366.58 551.53,392.46 C540.01,399.68 519.17,410.22 502.00,417.50 C474.84,429.02 454.17,439.90 433.96,453.30 C402.25,474.33 378.56,498.53 370.82,517.79 C368.97,522.40 368.52,525.42 368.51,533.50 C368.49,547.39 370.58,551.64 384.42,565.83 C392.20,573.81 395.62,578.14 397.61,582.55 C403.78,596.26 411.52,605.18 421.74,610.39 C430.45,614.82 447.66,616.20 460.45,613.49 ZM 361.90 512.15 C364.08,508.93 369.32,500.04 373.54,492.40 C377.76,484.75 382.38,476.92 383.80,475.00 C398.69,454.83 427.65,431.41 470.18,405.16 C490.00,392.93 501.00,378.14 505.65,357.50 C508.05,346.82 508.04,328.72 505.63,320.65 C503.42,313.23 500.68,310.52 493.35,308.51 C475.71,303.65 471.16,301.86 463.27,296.63 C451.36,288.73 444.13,286.50 430.50,286.50 C420.26,286.50 419.05,286.72 413.00,289.60 C403.75,294.01 396.95,299.80 391.76,307.67 C384.42,318.81 382.62,324.65 382.56,337.50 C382.51,347.32 382.78,349.09 385.09,354.00 C388.73,361.74 392.21,365.47 398.80,368.69 C403.68,371.09 405.73,371.49 413.00,371.49 C420.07,371.50 422.34,371.08 426.50,369.00 C433.01,365.74 435.69,360.89 437.63,348.84 C439.69,336.07 442.17,332.00 447.90,332.00 C451.09,332.00 456.54,337.49 458.99,343.19 C460.89,347.61 461.16,349.71 460.81,357.13 C460.43,364.97 459.95,366.78 456.07,374.69 C452.30,382.38 450.33,384.90 440.57,394.50 C431.36,403.55 426.91,407.01 415.44,414.00 C403.45,421.31 399.82,424.18 389.50,434.51 C373.36,450.67 364.44,465.88 359.02,486.50 C356.02,497.91 355.01,518.00 357.43,518.00 C357.70,518.00 359.71,515.37 361.90,512.15 ZM 335.00 851.68 C335.00,848.47 337.33,845.00 338.62,846.29 C339.36,847.03 337.15,853.79 335.93,854.55 C335.42,854.86 335.00,853.57 335.00,851.68 ZM 341.38 852.25 C341.66,851.29 342.20,848.79 342.57,846.70 C343.06,843.93 343.68,842.98 344.87,843.21 C347.11,843.63 347.51,848.57 345.55,851.56 C343.68,854.42 340.59,854.92 341.38,852.25 ZM 119.53 864.05 C118.73,862.75 122.26,861.00 125.68,861.01 L 128.50 861.01 L 125.50 863.00 C122.20,865.19 120.43,865.50 119.53,864.05 ZM 233.69 866.36 C232.66,865.33 232.85,862.00 233.94,862.00 C234.46,862.00 235.16,862.45 235.50,862.99 C236.27,864.24 234.63,867.30 233.69,866.36 ZM 217.00 850.13 L 217.00 846.26 L 225.14 845.55 C231.43,845.00 233.48,845.14 234.14,846.17 C236.51,849.85 232.33,852.52 228.96,849.47 C226.91,847.61 224.00,848.10 224.00,850.31 C224.00,851.59 220.06,854.00 217.95,854.00 C217.43,854.00 217.00,852.26 217.00,850.13 ZM 286.25 858.34 C284.08,857.46 284.88,856.02 288.49,854.30 C292.88,852.21 294.06,853.25 291.00,856.50 C288.57,859.09 288.33,859.18 286.25,858.34 ZM 287.00 849.95 C287.00,848.94 290.31,847.00 292.02,847.00 C292.65,847.00 292.99,847.54 292.77,848.20 C292.30,849.61 287.00,851.22 287.00,849.95 ZM 175.53 845.03 C173.43,842.71 174.12,841.39 178.41,839.60 C186.76,836.11 187.86,836.63 183.39,841.95 C179.51,846.56 177.59,847.31 175.53,845.03 ZM 213.50 788.19 C206.82,783.91 204.00,778.92 204.00,771.40 C204.00,765.49 205.93,761.15 210.23,757.37 C216.80,751.60 226.24,752.10 231.87,758.50 C241.87,769.89 235.59,788.47 221.32,789.70 C217.74,790.00 215.73,789.62 213.50,788.19 ZM 481.58 778.13 C480.88,777.00 486.47,761.68 487.73,761.26 C488.70,760.93 493.01,774.00 493.00,777.25 C493.00,778.70 492.07,779.00 487.56,779.00 C484.57,779.00 481.88,778.61 481.58,778.13 ZM 612.49 777.98 C611.65,776.62 617.25,760.92 618.44,761.32 C619.66,761.72 624.11,776.12 623.52,777.75 C622.97,779.27 613.41,779.47 612.49,777.98 ZM 733.47 777.95 C732.71,776.72 737.96,761.00 739.13,761.00 C740.20,761.00 745.16,776.93 744.45,778.08 C743.66,779.36 734.27,779.24 733.47,777.95 Z" fill="rgb(254,254,254)"/>
</g>
</svg>